HIERARCHY
ROOT Hips
{
	OFFSET 0.000000 100.481300 0.000000
	CHANNELS 6 Xposition Yposition Zposition Xrotation Yrotation Zrotation
	JOINT Spine
	{
		OFFSET -0.279200 12.230698 -2.892100
		CHANNELS 3 Xrotation Yrotation Zrotation
		JOINT Spine1
		{
			OFFSET -0.325700 14.269203 -3.374200
			CHANNELS 3 Xrotation Yrotation Zrotation
			JOINT Spine2
			{
				OFFSET -0.372300 16.307602 -0.352600
				CHANNELS 3 Xrotation Yrotation Zrotation
				JOINT Neck
				{
					OFFSET -0.418800 17.814194 8.416900
					CHANNELS 3 Xrotation Yrotation Zrotation
					JOINT Head
					{
						OFFSET 0.000000 7.031097 3.806800
						CHANNELS 3 Xrotation Yrotation Zrotation
						JOINT HeadTop_End
						{
							OFFSET 0.000000 24.646606 12.978600
							CHANNELS 3 Xrotation Yrotation Zrotation
							End Site
							{
								OFFSET 0.000000 27.854965 0.000000
							}
						}
					}
				}
				JOINT LeftShoulder
				{
					OFFSET 16.952999 14.495407 -7.737500
					CHANNELS 3 Xrotation Yrotation Zrotation
					JOINT LeftArm
					{
						OFFSET 9.308998 -2.777710 0.208600
						CHANNELS 3 Xrotation Yrotation Zrotation
						JOINT LeftForeArm
						{
							OFFSET 29.972298 0.000000 0.000000
							CHANNELS 3 Xrotation Yrotation Zrotation
							JOINT LeftHand
							{
								OFFSET 26.026505 0.000000 0.000000
								CHANNELS 3 Xrotation Yrotation Zrotation
								JOINT LeftHandThumb1
								{
									OFFSET 12.240501 -7.147949 9.207150
									CHANNELS 3 Xrotation Yrotation Zrotation
									JOINT LeftHandThumb2
									{
										OFFSET 4.138618 -2.389435 2.389433
										CHANNELS 3 Xrotation Yrotation Zrotation
										JOINT LeftHandThumb3
										{
											OFFSET 2.726913 -1.574387 1.574386
											CHANNELS 3 Xrotation Yrotation Zrotation
											JOINT LeftHandThumb4
											{
												OFFSET 3.941010 -2.275345 2.275342
												CHANNELS 3 Xrotation Yrotation Zrotation
												End Site
												{
													OFFSET -0.005798 5.087799 0.009903
												}
											}
										}
									}
								}
								JOINT LeftHandIndex1
								{
									OFFSET 24.424698 -1.985611 5.953459
									CHANNELS 3 Xrotation Yrotation Zrotation
									JOINT LeftHandIndex2
									{
										OFFSET 6.426697 0.000000 0.000000
										CHANNELS 3 Xrotation Yrotation Zrotation
										JOINT LeftHandIndex3
										{
											OFFSET 5.337898 0.000000 0.000000
											CHANNELS 3 Xrotation Yrotation Zrotation
											JOINT LeftHandIndex4
											{
												OFFSET 4.409401 0.000000 0.000000
												CHANNELS 3 Xrotation Yrotation Zrotation
												End Site
												{
													OFFSET 0.000000 4.409363 0.014373
												}
											}
										}
									}
								}
								JOINT LeftHandMiddle1
								{
									OFFSET 23.810104 0.000000 0.000000
									CHANNELS 3 Xrotation Yrotation Zrotation
									JOINT LeftHandMiddle2
									{
										OFFSET 7.176498 0.000000 0.000000
										CHANNELS 3 Xrotation Yrotation Zrotation
										JOINT LeftHandMiddle3
										{
											OFFSET 6.774902 0.000000 0.000000
											CHANNELS 3 Xrotation Yrotation Zrotation
											JOINT LeftHandMiddle4
											{
												OFFSET 5.403328 0.000000 0.000000
												CHANNELS 3 Xrotation Yrotation Zrotation
												End Site
												{
													OFFSET -0.027702 5.403244 0.017414
												}
											}
										}
									}
								}
								JOINT LeftHandRing1
								{
									OFFSET 22.908401 -0.839279 -6.020567
									CHANNELS 3 Xrotation Yrotation Zrotation
									JOINT LeftHandRing2
									{
										OFFSET 6.337502 0.000000 0.000000
										CHANNELS 3 Xrotation Yrotation Zrotation
										JOINT LeftHandRing3
										{
											OFFSET 5.779297 0.000000 0.000000
											CHANNELS 3 Xrotation Yrotation Zrotation
											JOINT LeftHandRing4
											{
												OFFSET 4.965698 0.000000 0.000000
												CHANNELS 3 Xrotation Yrotation Zrotation
												End Site
												{
													OFFSET 0.000000 4.965668 0.016186
												}
											}
										}
									}
								}
								JOINT LeftHandPinky1
								{
									OFFSET 20.037003 -1.530319 -10.950146
									CHANNELS 3 Xrotation Yrotation Zrotation
									JOINT LeftHandPinky2
									{
										OFFSET 5.254700 0.000000 0.000000
										CHANNELS 3 Xrotation Yrotation Zrotation
										JOINT LeftHandPinky3
										{
											OFFSET 4.810204 0.000000 0.000000
											CHANNELS 3 Xrotation Yrotation Zrotation
											JOINT LeftHandPinky4
											{
												OFFSET 3.647202 0.000000 0.000000
												CHANNELS 3 Xrotation Yrotation Zrotation
												End Site
												{
													OFFSET 0.000000 3.647186 0.011889
												}
											}
										}
									}
								}
							}
						}
					}
				}
				JOINT RightShoulder
				{
					OFFSET -15.141001 14.495407 -7.737500
					CHANNELS 3 Xrotation Yrotation Zrotation
					JOINT RightArm
					{
						OFFSET -9.308998 -2.777710 0.208500
						CHANNELS 3 Xrotation Yrotation Zrotation
						JOINT RightForeArm
						{
							OFFSET -29.972300 0.000000 0.000000
							CHANNELS 3 Xrotation Yrotation Zrotation
							JOINT RightHand
							{
								OFFSET -26.026505 0.000000 0.000000
								CHANNELS 3 Xrotation Yrotation Zrotation
								JOINT RightHandThumb1
								{
									OFFSET -12.240601 -7.148026 9.207092
									CHANNELS 3 Xrotation Yrotation Zrotation
									JOINT RightHandThumb2
									{
										OFFSET -4.138618 -2.389435 2.389433
										CHANNELS 3 Xrotation Yrotation Zrotation
										JOINT RightHandThumb3
										{
											OFFSET -2.726974 -1.574417 1.574421
											CHANNELS 3 Xrotation Yrotation Zrotation
											JOINT RightHandThumb4
											{
												OFFSET -3.941010 -2.275345 2.275343
												CHANNELS 3 Xrotation Yrotation Zrotation
												End Site
												{
													OFFSET 0.005814 5.087799 0.009927
												}
											}
										}
									}
								}
								JOINT RightHandIndex1
								{
									OFFSET -24.424698 -1.985657 5.953444
									CHANNELS 3 Xrotation Yrotation Zrotation
									JOINT RightHandIndex2
									{
										OFFSET -6.426697 0.000000 0.000000
										CHANNELS 3 Xrotation Yrotation Zrotation
										JOINT RightHandIndex3
										{
											OFFSET -5.337898 0.000000 0.000000
											CHANNELS 3 Xrotation Yrotation Zrotation
											JOINT RightHandIndex4
											{
												OFFSET -4.409401 0.000000 0.000000
												CHANNELS 3 Xrotation Yrotation Zrotation
												End Site
												{
													OFFSET 0.000000 4.409363 0.014408
												}
											}
										}
									}
								}
								JOINT RightHandMiddle1
								{
									OFFSET -23.810097 0.000000 0.000000
									CHANNELS 3 Xrotation Yrotation Zrotation
									JOINT RightHandMiddle2
									{
										OFFSET -7.176498 0.000000 0.000000
										CHANNELS 3 Xrotation Yrotation Zrotation
										JOINT RightHandMiddle3
										{
											OFFSET -6.774902 0.000000 0.000000
											CHANNELS 3 Xrotation Yrotation Zrotation
											JOINT RightHandMiddle4
											{
												OFFSET -5.403328 0.000000 0.000000
												CHANNELS 3 Xrotation Yrotation Zrotation
												End Site
												{
													OFFSET 0.027702 5.403244 0.017457
												}
											}
										}
									}
								}
								JOINT RightHandRing1
								{
									OFFSET -22.908302 -0.839325 -6.020576
									CHANNELS 3 Xrotation Yrotation Zrotation
									JOINT RightHandRing2
									{
										OFFSET -6.337502 0.000000 0.000000
										CHANNELS 3 Xrotation Yrotation Zrotation
										JOINT RightHandRing3
										{
											OFFSET -5.779297 0.000000 0.000000
											CHANNELS 3 Xrotation Yrotation Zrotation
											JOINT RightHandRing4
											{
												OFFSET -4.965698 0.000000 0.000000
												CHANNELS 3 Xrotation Yrotation Zrotation
												End Site
												{
													OFFSET 0.000000 4.965668 0.016226
												}
											}
										}
									}
								}
								JOINT RightHandPinky1
								{
									OFFSET -20.037003 -1.530334 -10.950259
									CHANNELS 3 Xrotation Yrotation Zrotation
									JOINT RightHandPinky2
									{
										OFFSET -5.254700 0.000000 0.000000
										CHANNELS 3 Xrotation Yrotation Zrotation
										JOINT RightHandPinky3
										{
											OFFSET -4.810204 0.000000 0.000000
											CHANNELS 3 Xrotation Yrotation Zrotation
											JOINT RightHandPinky4
											{
												OFFSET -3.647202 0.000000 0.000000
												CHANNELS 3 Xrotation Yrotation Zrotation
												End Site
												{
													OFFSET 0.000000 3.647186 0.011917
												}
											}
										}
									}
								}
							}
						}
					}
				}
			}
		}
	}
	JOINT LeftUpLeg
	{
		OFFSET 15.427100 -6.655098 0.678600
		CHANNELS 3 Xrotation Yrotation Zrotation
		JOINT LeftLeg
		{
			OFFSET 4.081073 -39.591068 13.024000
			CHANNELS 3 Xrotation Yrotation Zrotation
			JOINT LeftFoot
			{
				OFFSET -4.081074 -37.707932 -15.979700
				CHANNELS 3 Xrotation Yrotation Zrotation
				JOINT LeftToeBase
				{
					OFFSET 5.346399 -15.068900 20.645000
					CHANNELS 3 Xrotation Yrotation Zrotation
					JOINT LeftToe_End
					{
						OFFSET 2.754700 0.931300 11.300900
						CHANNELS 3 Xrotation Yrotation Zrotation
						End Site
						{
							OFFSET 0.000000 11.669021 0.000000
						}
					}
				}
			}
		}
	}
	JOINT RightUpLeg
	{
		OFFSET -15.569500 -6.655098 0.678600
		CHANNELS 3 Xrotation Yrotation Zrotation
		JOINT RightLeg
		{
			OFFSET -4.081825 -39.591045 13.023800
			CHANNELS 3 Xrotation Yrotation Zrotation
			JOINT RightFoot
			{
				OFFSET 4.081824 -37.707954 -15.979600
				CHANNELS 3 Xrotation Yrotation Zrotation
				JOINT RightToeBase
				{
					OFFSET -5.346400 -15.068900 20.645000
					CHANNELS 3 Xrotation Yrotation Zrotation
					JOINT RightToe_End
					{
						OFFSET -2.754700 0.931300 11.300900
						CHANNELS 3 Xrotation Yrotation Zrotation
						End Site
						{
							OFFSET 0.000000 11.669021 0.000000
						}
					}
				}
			}
		}
	}
}
MOTION
Frames: 6
Frame Time: 0.033333
150.203308 60.815853 80.532852 91.114218 -12.471709 -273.009273 5.466271 0.567606 1.451360 10.483651 1.060273 3.838105 10.483781 1.047413 3.842353 4.490720 2.397633 4.725278 12.926477 18.730696 -3.054428 -0.000001 -0.000002 -0.000002 0.567283 -3.195876 -0.312729 -61.942835 3.863529 14.873176 -0.000005 -56.317191 -0.000013 29.981757 -50.137434 15.330819 -2.247830 -2.825497 -4.070682 7.259487 22.117134 2.116395 -5.983916 8.810064 15.386866 0.000001 0.000001 0.000001 0.649317 4.854067 -25.934341 0.457472 2.271400 -22.771345 0.458306 2.273406 -22.792748 -0.000001 -0.000003 0.000002 1.220649 5.851412 -37.089635 0.998512 3.273124 -33.922169 0.998495 3.273102 -33.922124 0.000000 0.000000 0.000001 1.641018 6.353114 -43.485885 1.391772 3.791938 -40.298201 1.391768 3.791929 -40.298147 0.000001 -0.000001 -0.000001 1.859030 6.595826 -46.734658 1.612961 4.037725 -43.536958 1.612949 4.037702 -43.536886 -0.000001 0.000000 -0.000000 0.527469 0.181373 29.808595 -37.951991 -7.200490 26.763063 0.000013 28.555754 -0.000014 -20.617085 -19.935299 -11.682701 -4.153408 -2.187748 -7.717053 7.637623 -25.494330 -3.034331 -4.242942 -16.338402 -17.042068 -0.000002 0.000002 0.000000 0.823035 -4.853349 33.487745 0.668053 -2.405317 31.040327 0.075926 -0.838407 10.348790 -0.000001 -0.000001 -0.000004 1.663696 -5.805116 49.173513 0.687138 -2.436704 31.491905 0.412883 -1.918860 24.284471 -0.000000 -0.000001 -0.000001 1.700377 -5.836642 49.173288 1.464372 -3.392230 46.688325 1.464378 -3.392228 46.688260 0.000001 0.000002 0.000001 1.671789 -5.871985 49.170279 1.464360 -3.392240 46.688264 1.464370 -3.392214 46.688277 0.000000 0.000000 -0.000001 -118.833134 -24.157252 39.030348 60.420905 -4.392284 -15.389804 -3.782925 7.968978 -14.097962 -4.904162 -0.000007 -0.000004 -0.000000 0.000001 -0.000001 -95.209729 8.554807 -45.006644 57.308490 -0.361051 13.223866 -19.254706 -7.783474 34.309273 1.033881 -0.121295 1.460968 0.000000 0.000002 -0.000000 
151.563690 61.209549 76.878677 89.245069 -17.077549 -276.085071 4.842482 1.929897 1.521497 9.083005 3.635633 3.698190 9.074922 3.635390 3.717102 4.620841 2.795258 -2.957497 3.093517 11.550162 -3.364221 0.000000 -0.000000 -0.000000 0.582020 -4.708058 -10.251438 -61.049863 8.141423 17.152244 -0.000015 -52.012208 -0.000017 28.339037 -34.696535 24.042484 -2.829583 -4.094310 -4.620241 7.074001 20.704288 2.000834 -6.161982 7.431988 15.052422 0.000003 -0.000000 -0.000001 0.516081 4.553087 -22.712329 0.338487 1.964266 -19.552648 0.339336 1.966638 -19.577284 0.000000 -0.000002 -0.000000 1.035014 5.587678 -33.930829 0.826072 3.001278 -30.772389 0.826087 3.001283 -30.772372 -0.000000 -0.000001 0.000001 1.429571 6.115062 -40.363030 1.192587 3.544202 -37.185619 1.192601 3.544190 -37.185548 -0.000000 -0.000000 -0.000002 1.634974 6.370416 -43.630149 1.401379 3.803218 -40.443179 1.401368 3.803206 -40.443094 0.000001 -0.000000 0.000000 0.006765 0.080857 25.609622 -41.801560 -1.317437 29.238332 -0.000001 31.927576 0.000004 -21.185707 -20.707119 -18.933062 -4.299890 -1.565038 -7.516232 7.561521 -24.830497 -2.990419 -4.309680 -15.686448 -16.912003 0.000004 -0.000001 -0.000000 0.747061 -4.735062 31.757484 0.597404 -2.283928 29.313512 0.053062 -0.701745 8.647530 0.000000 -0.000003 -0.000000 1.557269 -5.710735 47.421583 0.615505 -2.315821 29.764516 0.357255 -1.790569 22.566231 -0.000000 0.000003 -0.000001 1.593430 -5.743818 47.421180 1.362492 -3.293360 44.941111 1.362486 -3.293365 44.941060 -0.000004 -0.000001 -0.000001 1.565046 -5.780206 47.418056 1.362483 -3.293371 44.941060 1.362486 -3.293361 44.941091 -0.000000 -0.000002 -0.000001 -116.440232 -22.910577 39.569827 57.186360 -2.919183 -14.953851 3.148667 8.793501 -15.514612 -3.906548 0.000002 -0.000004 -0.000000 0.000001 0.000000 -93.093545 6.896282 -44.794228 62.427683 0.175100 13.641116 -20.632642 -6.437353 32.492781 -1.412057 -0.102831 1.081966 0.000000 -0.000001 0.000000 
152.424561 61.779423 74.821350 85.717119 -21.403176 -280.031800 4.399855 3.469239 1.565901 8.340827 5.830754 3.524813 8.316016 5.856579 3.538497 3.439070 2.886289 -6.396743 2.130199 8.543839 -6.800227 0.000001 0.000000 0.000001 0.594061 -3.297646 -13.774726 -57.514318 16.042926 11.408655 -0.000011 -48.557423 -0.000018 28.165639 -32.762092 32.858794 -3.414686 -5.325477 -5.144847 6.889327 19.308250 1.882996 -6.345438 6.070972 14.718675 0.000004 0.000000 0.000002 0.400780 4.248315 -19.523432 0.237905 1.654150 -16.367730 0.238675 1.656716 -16.394052 -0.000000 0.000003 0.000001 0.864068 5.313671 -30.768284 0.668631 2.719853 -27.618218 0.668635 2.719837 -27.618176 -0.000000 0.000001 0.000002 1.229884 5.863712 -37.215122 1.005669 3.283722 -34.047410 1.005675 3.283725 -34.047373 0.000002 0.000000 -0.000003 1.420410 6.130939 -40.489672 1.200482 3.554549 -37.313033 1.200469 3.554550 -37.312958 0.000000 0.000001 -0.000001 -0.346988 2.566405 23.593874 -46.216625 3.916687 29.050157 0.000011 36.198514 -0.000001 -22.546408 -19.536590 -25.093528 -4.489107 -0.773983 -7.258319 7.464538 -23.986496 -2.933106 -4.396434 -14.857680 -16.745640 0.000000 -0.000002 -0.000000 0.655238 -4.580610 29.546053 0.512480 -2.125722 27.106278 0.030318 -0.531142 6.534585 0.000000 -0.000000 -0.000000 1.422823 -5.582775 45.135488 0.529251 -2.158162 27.555189 0.292401 -1.625743 20.390118 -0.000000 0.000000 0.000002 1.458074 -5.617708 45.134853 1.234129 -3.159740 42.661023 1.234123 -3.159727 42.660979 0.000001 -0.000000 0.000000 1.429757 -5.655103 45.131616 1.234135 -3.159751 42.660989 1.234139 -3.159732 42.661000 -0.000003 0.000000 -0.000000 -115.234157 -20.618103 37.031199 55.057141 -1.552420 -14.430586 8.295465 9.674353 -14.315395 -3.049081 0.000013 -0.000000 -0.000001 0.000002 -0.000000 -89.509895 5.694639 -47.239173 66.013205 1.032476 14.087050 -19.656007 -4.853252 32.180190 -5.018094 -0.108949 0.926740 -0.000000 0.000000 -0.000000 
152.806671 62.443134 73.829231 80.640116 -26.550612 -285.335141 3.931596 4.906852 1.231359 7.687107 7.370525 2.551835 7.647338 7.417512 2.537231 3.555621 1.769070 -4.853789 1.071646 5.748701 -9.510816 -0.000001 -0.000002 0.000000 0.668164 -0.722013 -13.009366 -51.386508 23.605726 4.493394 0.000004 -49.440980 0.000001 23.223133 -24.875756 39.363715 -3.972347 -6.460652 -5.627665 6.715073 18.001454 1.769261 -6.523973 4.797626 14.402921 -0.000001 -0.000002 0.000000 0.308424 3.956926 -16.533096 0.159407 1.358682 -13.382360 0.160023 1.361279 -13.408268 0.000001 0.000001 -0.000000 0.716581 5.046142 -27.777351 0.534156 2.445925 -24.634546 0.534145 2.445912 -24.634493 0.000001 -0.000001 0.000003 1.053228 5.614916 -34.223332 0.841434 3.026884 -31.064254 0.841418 3.026845 -31.064168 0.000002 -0.000001 -0.000002 1.228407 5.892051 -37.497342 1.021907 3.307599 -34.329948 1.021914 3.307577 -34.329890 0.000001 0.000000 -0.000001 -0.508551 6.448908 22.801565 -50.676653 9.141812 27.459418 0.000017 41.060403 -0.000023 -23.683124 -17.259179 -29.395474 -4.709201 0.127099 -6.960839 7.353576 -23.023938 -2.866060 -4.498017 -13.912766 -16.554854 -0.000001 0.000000 -0.000000 0.557805 -4.400079 27.021705 0.423049 -1.941222 24.586396 0.012342 -0.339266 4.168316 0.000000 0.000000 -0.000000 1.273774 -5.428164 42.490784 0.438282 -1.974142 25.031909 0.226411 -1.435867 17.920777 0.000000 0.000000 0.000001 1.307807 -5.465125 42.489917 1.092399 -2.998886 40.023003 1.092397 -2.998869 40.022965 0.000001 -0.000001 -0.000001 1.278722 -5.502757 42.486495 1.092400 -2.998881 40.022999 1.092397 -2.998872 40.022965 -0.000001 -0.000000 -0.000001 -113.221150 -17.525239 33.345595 53.753008 -0.764348 -13.928654 11.656530 10.055432 -11.490268 -2.358416 0.000013 0.000005 -0.000001 0.000002 0.000001 -82.933509 3.424237 -50.690362 68.018446 1.996805 14.472102 -19.058075 -3.918491 32.364868 -7.561435 -0.146370 1.145451 -0.000000 -0.000001 0.000000 
152.745056 63.221508 73.328781 74.538975 -30.787231 -292.060719 3.612841 5.988624 1.230181 7.253408 8.537341 2.299252 7.206631 8.590738 2.256532 3.349981 1.174780 -4.121175 1.043657 3.354423 -8.876428 -0.000001 -0.000001 0.000003 1.087521 2.216131 -19.732046 -49.228332 25.255543 3.659016 -0.000000 -49.539324 -0.000004 17.352492 -24.873082 38.812803 -4.469901 -7.442577 -6.048289 6.561157 16.856239 1.666786 -6.686022 3.682281 14.123268 0.000000 0.000000 0.000003 0.239991 3.697128 -13.906478 0.103276 1.096255 -10.762152 0.103705 1.098555 -10.784998 0.000001 0.000000 0.000000 0.598009 4.803384 -25.132980 0.427233 2.198043 -21.996011 0.427220 2.198043 -21.995960 -0.000001 -0.000001 0.000002 0.907536 5.386601 -31.568212 0.707006 2.791883 -28.416276 0.707001 2.791861 -28.416220 -0.000000 -0.000000 -0.000003 1.068428 5.671295 -34.836680 0.874079 3.080332 -31.677048 0.874080 3.080310 -31.676983 -0.000002 -0.000002 -0.000000 -0.588859 10.603602 22.293299 -54.791716 14.649233 25.705965 0.000002 46.205103 -0.000002 -24.040495 -14.826705 -31.494289 -4.947393 1.080204 -6.641790 7.235534 -22.004568 -2.793219 -4.608670 -12.912298 -16.351574 0.000000 0.000000 -0.000001 0.463538 -4.204685 24.352498 0.337381 -1.741990 21.921497 0.002073 -0.139038 1.707057 -0.000001 -0.000000 0.000002 1.122531 -5.255394 39.662874 0.350913 -1.775237 22.362538 0.165899 -1.233225 15.322778 0.000002 0.000001 0.000003 1.155029 -5.294448 39.661706 0.949174 -2.819785 37.201896 0.949178 -2.819784 37.201858 -0.000001 -0.000001 -0.000001 1.124544 -5.331504 39.658148 0.949167 -2.819771 37.201882 0.949181 -2.819776 37.201882 -0.000000 -0.000001 0.000001 -110.726594 -14.300832 29.881678 52.394815 -0.157101 -13.507117 13.793337 9.169448 -8.429551 -1.861283 -0.000005 0.000000 0.000000 0.000003 -0.000000 -74.578118 -0.062814 -52.827439 68.429336 2.525620 14.726998 -19.547201 -4.827819 33.315518 -9.292578 -0.170511 1.266607 -0.000000 0.000001 -0.000000 
152.566010 64.637527 73.153679 66.932452 -34.303983 -299.568955 3.246217 6.185152 0.682759 6.614752 8.909281 1.458545 6.574647 8.950026 1.407583 4.785480 0.743546 -1.924487 1.038985 3.347150 -5.942818 0.000001 -0.000001 -0.000000 1.780189 6.342867 -23.552241 -46.646265 28.911060 2.819144 0.000010 -49.538406 0.000011 17.967940 -19.608317 42.200259 -4.872949 -8.214763 -6.383463 6.437789 15.944902 1.583288 -6.818724 2.795075 13.898618 -0.000002 0.000001 0.000000 0.193887 3.487356 -11.808495 0.067116 0.885294 -8.672731 0.067392 0.886969 -8.689292 -0.000000 -0.000002 -0.000000 0.511043 4.604622 -23.009777 0.349695 1.995515 -19.877111 0.349679 1.995532 -19.877078 -0.000002 -0.000001 0.000001 0.798047 5.197932 -29.430035 0.606707 2.598204 -26.283510 0.606701 2.598176 -26.283440 -0.000002 0.000001 -0.000001 0.946973 5.487847 -32.690808 0.762583 2.892120 -29.537098 0.762579 2.892107 -29.537030 0.000000 -0.000001 0.000001 -0.571435 13.932374 21.260618 -58.517598 20.383001 25.092554 0.000016 51.324432 -0.000019 -23.295296 -13.076537 -31.321257 -5.189831 2.027579 -6.320097 7.117447 -20.990088 -2.718882 -4.721995 -11.916851 -16.147962 0.000001 0.000000 -0.000001 0.379205 -4.006742 21.706158 0.261697 -1.540665 19.279035 0.000332 0.056281 -0.690898 -0.000000 -0.000001 0.000000 0.979622 -5.074780 36.826785 0.273546 -1.574110 19.714690 0.115275 -1.030825 12.760573 0.000001 -0.000003 -0.000003 1.010465 -5.115810 36.825313 0.814570 -2.633262 34.372268 0.814557 -2.633236 34.372237 -0.000004 0.000001 -0.000001 0.978449 -5.152027 36.821686 0.814546 -2.633238 34.372251 0.814555 -2.633229 34.372230 0.000004 -0.000001 -0.000001 -105.515679 -10.699588 27.153639 48.768644 1.000906 -13.028025 15.617950 4.844358 -7.419436 -2.224332 0.000020 -0.000006 -0.000000 0.000003 0.000000 -65.144794 -4.319866 -53.572497 67.121430 2.491754 14.654693 -20.316085 -7.082338 34.329135 -10.167169 -0.180897 1.331618 -0.000000 -0.000001 0.000000 
